<?xml version="1.0" encoding="utf-8"?>
<!-- Generator: Adobe Illustrator 27.5.0, SVG Export Plug-In . SVG Version: 6.00 Build 0)  -->
<svg version="1.1" xmlns="http://www.w3.org/2000/svg" xmlns:xlink="http://www.w3.org/1999/xlink" x="0px" y="0px"
	 viewBox="0 0 929 800" style="enable-background:new 0 0 929 800;" xml:space="preserve">
<g id="Layer_3">
	<g>
		<g>
			<path style="fill:#00142B;" d="M501.008,586.735h-19.58l26.596-85.951h-14.791l-26.596,85.951h-19.922l27.331-88.326
				c1.366-4.414,3.839-7.846,7.418-10.294c3.578-2.448,7.903-3.671,12.977-3.671h16.844c3.647,0,6.217,0.864,7.706,2.591
				c1.488,1.728,1.75,4.151,0.786,7.271c0.98-3.168,2.729-5.603,5.253-7.307c2.523-1.703,5.579-2.555,9.17-2.555h16.844
				c5.072,0,8.67,1.224,10.792,3.671c2.119,2.448,2.499,5.88,1.132,10.294l-27.331,88.326h-20.094l26.596-85.951h-14.535
				L501.008,586.735z"/>
			<path style="fill:#00142B;" d="M570.299,518.924c1.381-4.463,3.882-7.942,7.505-10.438c3.621-2.494,7.997-3.742,13.128-3.742
				h20.178c5.13,0,8.733,1.248,10.813,3.742c2.076,2.496,2.426,5.975,1.044,10.438l-16.594,53.63
				c-1.456,4.704-3.948,8.242-7.475,10.618c-3.528,2.376-8.029,3.564-13.5,3.564h-19.836c-5.131,0-8.742-1.224-10.834-3.671
				c-2.094-2.448-2.449-5.903-1.068-10.366L570.299,518.924z M603.069,520.508h-13.851l-15.658,50.606h13.851L603.069,520.508z"/>
			<path style="fill:#00142B;" d="M624.73,586.735l7.883-81.848h19.238l-8.277,58.524l27.729-58.668h19.324l-42.899,81.992H624.73z"
				/>
			<path style="fill:#00142B;" d="M693.282,513.021h19.408l-22.808,73.714h-19.409L693.282,513.021z M695.33,506.399l4.255-13.75
				l21.948-8.206l-6.794,21.956H695.33z"/>
			<path style="fill:#00142B;" d="M723.859,518.924c1.382-4.463,3.883-7.942,7.506-10.438c3.621-2.494,7.997-3.742,13.128-3.742
				h20.178c5.13,0,8.733,1.248,10.813,3.742c2.076,2.496,2.426,5.975,1.044,10.438l-7.773,25.124l-33.624,0.072l-8.443,27.283
				h14.535l3.697-11.949l21.673-8.423l-6.705,21.668c-1.381,4.463-3.876,7.918-7.482,10.366c-3.609,2.448-7.977,3.671-13.107,3.671
				h-20.178c-5.131,0-8.742-1.224-10.834-3.671c-2.094-2.448-2.449-5.903-1.068-10.366L723.859,518.924z M738.606,532.89h14.535
				l4.054-13.102H742.66L738.606,532.89z"/>
		</g>
		<g>
			<path style="fill:#B30000;" d="M210.989,535.121l-16.666,6.335l8.732,45.279h-20.862l-7.179-37.864l-3.393,1.296l-11.315,36.569
				h-19.922l31.652-102.292h38.39c5.072,0,8.669,1.224,10.791,3.671c2.12,2.448,2.499,5.88,1.132,10.294L210.989,535.121z
				 M193.985,525.69l7.751-25.05h-14.791l-7.751,25.05H193.985z"/>
			<path style="fill:#B30000;" d="M229.511,518.924c1.381-4.463,3.882-7.942,7.505-10.438c3.621-2.494,7.997-3.742,13.128-3.742
				h20.178c5.13,0,8.733,1.248,10.813,3.742c2.076,2.496,2.425,5.975,1.044,10.438l-7.774,25.124l-33.624,0.072l-8.442,27.283
				h14.535l3.697-11.949l21.673-8.423l-6.705,21.668c-1.381,4.463-3.876,7.918-7.481,10.366c-3.609,2.448-7.977,3.671-13.107,3.671
				h-20.178c-5.131,0-8.742-1.224-10.834-3.671c-2.094-2.448-2.449-5.903-1.068-10.366L229.511,518.924z M244.256,532.89h14.535
				l4.054-13.102h-14.535L244.256,532.89z"/>
			<path style="fill:#B30000;" d="M303.138,571.114h17.869l-4.834,15.621h-20.947c-5.188,0-8.828-1.224-10.919-3.671
				c-2.094-2.448-2.449-5.903-1.068-10.366l13.186-42.616l-10.606,0.288l5.123-16.557l10.584-0.216l4.744-15.333l22.327-9.429
				l-7.506,24.259l16.203-0.144l-5.146,16.629l-16.182,0.072L303.138,571.114z"/>
			<path style="fill:#B30000;" d="M348.214,504.743h19.409l-2.561,8.278c1.742-2.687,3.845-4.739,6.308-6.155
				c2.46-1.415,5.174-2.123,8.139-2.123h2.992c4.844,0,8.111,1.187,9.8,3.564c1.686,2.375,1.803,5.915,0.348,10.617l-2.317,7.488
				l-21.971,8.278l4.388-14.181h-10.003l-20.492,66.227h-19.409L348.214,504.743z"/>
			<path style="fill:#B30000;" d="M399.316,518.924c1.381-4.463,3.882-7.942,7.505-10.438c3.621-2.494,7.997-3.742,13.128-3.742
				h20.178c5.13,0,8.733,1.248,10.813,3.742c2.076,2.496,2.425,5.975,1.044,10.438l-16.594,53.63
				c-1.456,4.704-3.948,8.242-7.475,10.618c-3.528,2.376-8.029,3.564-13.5,3.564H394.58c-5.131,0-8.742-1.224-10.834-3.671
				c-2.094-2.448-2.449-5.903-1.068-10.366L399.316,518.924z M432.086,520.508h-13.851l-15.658,50.606h13.851L432.086,520.508z"/>
		</g>
	</g>
	<g>
		<path style="fill:#53606C;" d="M281.277,633.121l-2.992,10.486h-3.146l6.796-23.489H294.1l-3.762,13.003H281.277z
			 M289.978,623.055h-5.788l-2.063,7.13h5.788L289.978,623.055z"/>
		<path style="fill:#53606C;" d="M308.361,643.608l-2.671-10.486h-1.342l-2.992,10.486h-3.147l6.796-23.489h12.165l-3.762,13.003
			h-3.607l2.67,10.486H308.361z M313.049,623.055h-5.788l-2.063,7.13h5.788L313.049,623.055z"/>
		<path style="fill:#53606C;" d="M328.916,620.119h13.004l-6.796,23.489H322.12L328.916,620.119z M332.774,640.419l5.012-17.322
			h-6.627l-5.012,17.322H332.774z"/>
		<path style="fill:#53606C;" d="M352.825,620.119h9.228l2.198,5.453l-3.762,13.002l-5.652,5.034h-8.809L352.825,620.119z
			 M355.425,640.419l1.13-1.006l4.369-15.101l-0.487-1.216h-5.369l-5.012,17.322H355.425z"/>
		<path style="fill:#53606C;" d="M382.943,643.608h-13.004l6.796-23.489h3.104l-5.947,20.554h6.627l5.947-20.554h3.273
			L382.943,643.608z"/>
		<path style="fill:#53606C;" d="M403.033,623.181l-5.061,17.491h9.396l-0.85,2.936h-12.668l6.796-23.489h13.004l-1.941,6.711
			h-3.104l1.056-3.648H403.033z"/>
		<path style="fill:#53606C;" d="M422.794,643.608l5.923-20.47h-5.076l0.874-3.019h13.046l-0.874,3.019h-4.866l-5.923,20.47H422.794
			z"/>
		<path style="fill:#53606C;" d="M446.333,623.138l0.874-3.019h8.892l-0.874,3.019h-2.811l-5.049,17.45h3.02l-0.874,3.02h-8.851
			l0.874-3.02h2.727l5.049-17.45H446.333z"/>
		<path style="fill:#53606C;" d="M465.957,620.119h13.004l-6.796,23.489h-13.004L465.957,620.119z M469.815,640.419l5.012-17.322
			H468.2l-5.012,17.322H469.815z"/>
		<path style="fill:#53606C;" d="M492.858,620.076l2.979,13.045l3.762-13.003h3.272l-6.796,23.489h-2.476l-3.175-14.681
			l-4.248,14.681h-3.104l6.796-23.489L492.858,620.076z"/>
		<path style="fill:#53606C;" d="M521.599,643.608l5.923-20.47h-5.076l0.874-3.019h13.046l-0.874,3.019h-4.866l-5.923,20.47H521.599
			z"/>
		<path style="fill:#53606C;" d="M553.478,643.608h-13.004l6.796-23.489l13.017-0.042l-0.862,2.979h-9.9l-1.468,5.075h9.899
			l-0.85,2.936h-9.899l-2.707,9.354h9.9L553.478,643.608z"/>
		<path style="fill:#53606C;" d="M574.116,643.608l3.034-10.486h-6.627l-3.034,10.486h-3.104l6.796-23.489h13.004l-6.796,23.489
			H574.116z M571.373,630.185H578l2.063-7.13h-6.627L571.373,630.185z"/>
		<path style="fill:#53606C;" d="M597.942,643.608l5.947-20.553h-6.543l-5.947,20.553h-3.104l6.797-23.489h22.651l-6.796,23.489
			h-3.272l5.947-20.553h-6.375l-5.948,20.553H597.942z"/>
	</g>
</g>
<g id="Layer_2">
	<g>
		<g>
			<defs>
				<path id="SVGID_1_" d="M467.128,405.815c-20.916-29.195-30.612-67.464-24.497-109.304c4.203-28.751,15.379-55.816,31.515-79.41
					c0,0-34.147-48.1-122.147-30.767S202.666,305.667,240,387C275.738,464.858,383.59,463.962,467.128,405.815z"/>
			</defs>
			<clipPath id="SVGID_00000019678599186044426550000004694894838805019570_">
				<use xlink:href="#SVGID_1_"  style="overflow:visible;"/>
			</clipPath>
			<g style="clip-path:url(#SVGID_00000019678599186044426550000004694894838805019570_);">
				<g>
					<path style="fill:#00142B;" d="M263.575,411.993c-19.229-19.198-30.543-45.985-30.54-76.175l0,0
						c0-6.077,0.458-12.292,1.401-18.611l0,0c10.353-69.083,74.383-124.83,143.519-124.894l0,0
						c31.407-0.007,58.537,11.592,77.762,30.798l0,0c19.227,19.2,30.545,45.984,30.538,76.175l0,0
						c0,6.079-0.455,12.294-1.396,18.613l0,0c-10.354,69.083-74.384,124.825-143.524,124.892l0,0
						C309.923,442.795,282.8,431.2,263.575,411.993L263.575,411.993z M237.718,335.817c0.07,58.002,43.149,102.223,103.617,102.29
						l0,0c66.61,0.066,129.022-54.232,138.893-120.9l0,0c0.906-6.093,1.346-12.079,1.346-17.921l0,0
						c-0.066-58.004-43.154-104.743-103.618-104.813l0,0c-66.605-0.063-129.016,56.756-138.889,123.426l0,0
						C238.162,323.994,237.718,329.976,237.718,335.817L237.718,335.817z"/>
				</g>
				<path style="fill:#ABB1B9;" d="M246.627,315.386c-9.321,62.569,33.843,113.294,96.412,113.294
					c62.571,0,120.852-50.725,130.174-113.294c9.322-62.569-33.844-113.292-96.415-113.292
					C314.229,202.094,255.951,252.817,246.627,315.386z"/>
				<path style="fill:#78828F;" d="M358.497,324.933c40.497,0,75.461,13.675,101.18,31.022
					c-22.653,42.528-68.366,72.725-116.639,72.725c-48.27,0-84.986-30.196-94.967-72.725
					C278.962,338.608,318.001,324.933,358.497,324.933z"/>
				<path style="fill:#00142B;" d="M336.721,317.08c-1.889,12.672,6.856,22.945,19.526,22.945c12.674,0,24.477-10.273,26.367-22.945
					c1.886-12.673-6.857-22.945-19.531-22.945C350.413,294.136,338.609,304.407,336.721,317.08z"/>
				<path style="fill:#FFFFFF;" d="M377.377,320.161c1.559-10.462-5.312-18.943-15.347-18.943c-10.035,0-19.434,8.481-20.993,18.943
					c-0.153,1.029-0.203,2.034-0.198,3.02c-0.366-1.916-0.433-3.964-0.113-6.101c1.559-10.462,11.302-18.939,21.761-18.939
					c10.465,0,17.68,8.477,16.122,18.939c-0.318,2.137-0.993,4.185-1.931,6.101C376.976,322.195,377.223,321.19,377.377,320.161z"/>
				<path style="fill:#FFFFFF;" d="M370.381,319.738c0.976-6.548-3.209-11.857-9.345-11.857c-6.136,0-11.902,5.309-12.878,11.857
					c-0.093,0.627-0.127,1.241-0.127,1.844c-0.363-1.391-0.457-2.907-0.219-4.502c0.976-6.549,7.073-11.857,13.62-11.857
					c6.549,0,11.065,5.308,10.091,11.857c-0.237,1.595-0.784,3.111-1.561,4.502C370.142,320.979,370.289,320.366,370.381,319.738z"
					/>
				<path style="fill:#FFFFFF;" d="M338.825,222.225c-8.134,12.834,5.117,68.312,24.575,68.312
					c19.456,0,50.813-55.819,44.931-68.312C402.447,209.735,346.952,209.392,338.825,222.225z"/>
				<path style="fill:#FFFFFF;" d="M258.299,322.546c8.15,9.909,66.01,5.807,75.109-13.055
					c9.098-18.866-29.343-56.955-43.729-53.224C275.297,260,250.15,312.637,258.299,322.546z"/>
				<path style="fill:#FFFFFF;" d="M316.196,416.081c13.612-6.411,37.704-63.44,23.735-75.232
					c-13.969-11.796-70.294,18.502-73.637,33.101C262.949,388.55,302.583,422.486,316.196,416.081z"/>
				<path style="fill:#FFFFFF;" d="M436.195,374.939c0.243-14.143-48.061-43.075-63.205-34.781
					c-19.072,10.441-15.737,70.718-2.859,76.249C383.008,421.94,435.953,389.077,436.195,374.939z"/>
				<path style="fill:#FFFFFF;" d="M448.791,258.694c-13.362-2.59-63.269,32.679-60.546,51.714
					c2.719,19.04,60.272,26.389,71.351,15.41C470.669,314.84,462.154,261.286,448.791,258.694z"/>
				<path style="fill:#1F3044;" d="M364.169,285.455c18.212,0,47.573-52.337,42.072-64.053c-5.503-11.712-57.442-12.033-65.055,0
					C333.572,233.437,345.96,285.455,364.169,285.455z M260.205,316.726c8.188,9.328,64.301,6.672,72.634-10.607
					c8.332-17.278-28.989-54.284-42.868-51.11C276.097,258.18,252.019,307.398,260.205,316.726z M269.364,371.19
					c-3.271,13.717,33.441,45.165,46.233,39.027c12.792-6.136,35.887-59.833,22.943-70.761
					C325.6,328.531,272.637,357.468,269.364,371.19z M372.603,411.052c11.807,5.501,59.101-23.83,59.003-37.038
					c-0.099-13.209-41.608-44.506-58.122-34.141C356.966,350.241,360.795,405.547,372.603,411.052z M458.496,320.078
					c10.735-10.237,3.931-60.235-8.923-62.45c-12.854-2.217-62.197,31.691-59.699,49.17
					C392.371,324.28,447.754,330.317,458.496,320.078z"/>
				<path style="fill:#2B3C4F;" d="M264.188,315.386c-0.183,1.226-0.335,2.443-0.469,3.655c14.829,6.383,61.571,2.725,69.12-12.922
					c7.54-15.633-22.314-47.43-38.338-50.978C278.708,271.595,267.591,292.553,264.188,315.386z M369.479,408.235
					c23.64-5.727,45.25-19.617,61.052-38.379c-6.617-14.574-42.087-39.373-57.048-29.982
					C358.53,349.262,360.252,395.488,369.479,408.235z M271.556,366.93c9.471,19.281,26.367,33.839,47.874,40.381
					c12.976-12.926,30.84-57.953,19.111-67.854C326.826,329.568,282.31,352.349,271.556,366.93z M364.169,285.455
					c16.493,0,42.123-42.912,42.735-59.719c-9.878-3.93-20.887-6.08-32.723-6.08c-11.867,0-23.548,2.164-34.621,6.109
					C335.947,242.734,347.668,285.455,364.169,285.455z M454.316,322.556c0.527-2.366,0.975-4.756,1.335-7.17
					c3.211-21.562-0.957-41.464-10.602-57.468c-17.158,3.73-57.438,33.046-55.175,48.88
					C392.133,322.621,437.721,329.071,454.316,322.556z"/>
				<path style="fill:#475666;" d="M274.354,315.386c-0.301,2.026-0.523,4.033-0.682,6.025c19.602,2.426,52.899-2.298,59.166-15.292
					c6.247-12.952-13.165-36.99-29.122-46.879C288.402,274.266,277.557,293.902,274.354,315.386z M365.434,399.053
					c23.266-4.824,44.564-18.527,59.482-37.277c-12.445-13.921-39.009-29.699-51.434-21.901
					C361.1,347.648,360.152,380.684,365.434,399.053z M279.75,358.894c8.536,19.277,25.141,33.693,46.54,39.388
					c11.327-18.169,21.99-50.606,12.251-58.826C328.841,331.266,296.639,345.484,279.75,358.894z M338.996,236.299
					c1.07,19.713,11.473,49.156,25.173,49.156c13.657,0,33.582-29.432,40.378-49.095c-9.49-4.21-20.239-6.539-31.879-6.539
					C361.085,229.821,349.696,232.129,338.996,236.299z M443.568,324.786c0.796-3.089,1.443-6.224,1.916-9.4
					c3.021-20.267-1.259-38.884-10.853-53.545c-19.191,9.374-46.638,31.81-44.757,44.958
					C391.745,319.905,423.341,326.579,443.568,324.786z"/>
				<path style="fill:#17293E;" d="M440.097,325.002c0.839-3.153,1.51-6.363,1.996-9.616c2.931-19.673-1.293-37.728-10.714-51.873
					c-18.885,10.158-43.28,30.867-41.504,43.286C391.639,319.177,419.924,325.814,440.097,325.002z M364.616,395.865
					c22.781-4.558,43.64-17.993,58.108-36.412c-13.149-13.271-37.504-26.946-49.241-19.579
					C361.785,347.217,360.294,377.096,364.616,395.865z M282.697,356.659c8.203,18.932,24.463,33.059,45.465,38.478
					c10.571-18.547,19.578-47.914,10.378-55.681C329.379,331.721,300.145,343.975,282.697,356.659z M277.743,315.386
					c-0.319,2.141-0.552,4.263-0.703,6.359c19.833,1.544,49.878-3.349,55.799-15.625c5.897-12.231-11.086-34.352-26.433-45.101
					C291.452,275.506,280.849,294.537,277.743,315.386z M339.259,239.653c1.968,19.522,11.967,45.802,24.91,45.802
					c12.9,0,31.392-26.257,39.124-45.735c-9.235-4.191-19.743-6.508-31.133-6.508C360.832,233.211,349.696,235.504,339.259,239.653z
					"/>
				<path style="fill:#38485A;" d="M363.018,386.24c20.759-3.866,39.781-16.133,52.72-33.028
					c-13.549-10.829-32.374-19.542-42.255-13.338C363.64,346.053,361.025,368.194,363.018,386.24z M287.755,315.386
					c-0.332,2.228-0.543,4.427-0.668,6.604c18.69-0.434,40.769-5.536,45.752-15.871c4.964-10.296-6.289-27.602-19.128-39.232
					C300.165,279.702,290.537,296.712,287.755,315.386z M340.779,249.301c3.689,17.536,12.497,36.154,23.39,36.154
					c10.855,0,25.668-18.593,34.702-36.097c-8.322-3.936-17.837-6.136-28.201-6.136
					C360.357,243.223,350.233,245.402,340.779,249.301z M430.038,324.833c0.867-3.094,1.567-6.242,2.044-9.447
					c2.628-17.642-1.305-33.798-9.95-46.335c-16.7,10.963-33.753,27.292-32.258,37.747
					C391.363,317.217,411.627,323.567,430.038,324.833z M291.751,350.743c7.191,17.357,22.018,30.25,41.246,34.9
					c8.131-17.812,13.285-39.649,5.543-46.187C330.829,332.947,308.902,340.596,291.751,350.743z"/>
				<path style="fill:#1A2B40;" d="M414.151,322.495c0.641-2.328,1.165-4.7,1.524-7.109c2.029-13.609-0.996-26.075-7.655-35.757
					c-10.893,9.335-19.208,19.739-18.146,27.169C390.932,314.214,401.507,319.568,414.151,322.495z M362.507,370.099
					c15.944-3.024,30.544-12.46,40.501-25.438c-10.955-6.067-22.502-9.195-29.525-4.788
					C366.475,344.273,363.131,356.759,362.507,370.099z M307.318,342.872c5.575,13.31,16.971,23.196,31.745,26.785
					c3.968-13.169,4.984-25.552-0.523-30.2C333.054,334.825,320.362,337.365,307.318,342.872z M304.163,315.386
					c-0.253,1.701-0.417,3.381-0.512,5.043c13.461-2.26,25.645-6.964,29.188-14.31c3.534-7.328-1.15-18.206-8.769-28.063
					C313.682,287.941,306.302,301.027,304.163,315.386z M364.169,285.455c7.727,0,17.46-9.423,25.687-21.164
					c-6.392-2.994-13.689-4.662-21.631-4.662c-7.947,0-15.748,1.673-23.039,4.672C349.734,276.042,356.425,285.455,364.169,285.455z
					"/>
				<path style="fill:#00142B;" d="M265.176,287.077c6.591-12.724,15.23-24.127,21.674-25.601
					c13.018-2.974,46.67,29.41,43.903,47.695c0.865-0.961,1.567-1.979,2.085-3.052c8.332-17.278-28.989-54.284-42.868-51.11
					C282.449,256.728,271.928,271.984,265.176,287.077z M459.089,319.445c9.881-11.498,3.092-59.644-9.516-61.817
					c-11.729-2.021-53.821,26.023-59.214,44.231c11.369-17.674,45.686-39.553,56.093-37.762
					C457.354,265.978,463.906,302.237,459.089,319.445z M339.475,226.21c11.125-10.313,58.41-9.485,63.647,1.663
					c1.834,3.905-0.214,12.332-4.428,21.83c6.234-11.987,9.792-23.525,7.548-28.301c-5.503-11.712-57.442-12.033-65.055,0
					C340.415,222.623,339.85,224.263,339.475,226.21z M269.364,371.19c-0.096,0.403-0.154,0.821-0.185,1.252
					c11.917-14.593,54.779-36.193,66.244-26.516c7.623,6.436,2.74,27.718-5.179,45.375c9.608-18.523,16.886-44.597,8.296-51.845
					C325.6,328.531,272.637,357.468,269.364,371.19z M365.824,350.989c1.299-1.97,2.805-3.556,4.54-4.645
					c16.512-10.367,58.021,20.93,58.12,34.141c0.001,0.256-0.021,0.523-0.055,0.792c2.022-2.69,3.191-5.177,3.175-7.262
					c-0.099-13.209-41.608-44.506-58.122-34.141C370.122,341.985,367.604,345.954,365.824,350.989z"/>
			</g>
		</g>
		<g>
			<path style="fill:#00142B;" d="M487.004,410.294c-22.803-22.544-36.224-53.999-36.215-89.451l0,0
				c0-7.137,0.539-14.431,1.656-21.85l0,0c12.281-81.122,88.207-146.582,170.189-146.659l0,0
				c37.245-0.008,69.41,13.607,92.205,36.164l0,0c22.806,22.541,36.225,53.997,36.217,89.451l0,0c0,7.132-0.542,14.431-1.659,21.853
				l0,0c-12.275,81.124-88.2,146.586-170.187,146.661l0,0C541.966,446.47,509.8,432.85,487.004,410.294L487.004,410.294z
				 M456.339,320.843c0.084,68.109,51.171,120.04,122.872,120.119l0,0c78.987,0.071,152.991-63.688,164.698-141.969l0,0
				c1.076-7.159,1.597-14.186,1.597-21.044l0,0c-0.08-68.113-51.174-122.725-122.871-122.802l0,0
				c-78.984-0.076-152.988,66.374-164.695,144.654l0,0C456.861,306.957,456.339,313.986,456.339,320.843L456.339,320.843z"/>
		</g>
		<path style="fill:#ABB1B9;" d="M465.9,296.508c-11.199,75.172,40.66,136.108,115.829,136.108
			c75.169,0,145.187-60.937,156.387-136.108c11.2-75.169-40.661-136.106-115.829-136.106
			C547.118,160.402,477.1,221.339,465.9,296.508z"/>
		<path style="fill:#78828F;" d="M600.297,307.977c48.652,0,90.658,16.432,121.559,37.271
			c-27.215,51.094-82.133,87.368-140.127,87.368c-57.992,0-102.103-36.273-114.096-87.368
			C504.747,324.409,551.648,307.977,600.297,307.977z"/>
		<path style="fill:#00142B;" d="M574.14,298.545c-2.271,15.224,8.232,27.566,23.457,27.566c15.227,0,29.406-12.342,31.675-27.566
			c2.268-15.224-8.235-27.568-23.46-27.568C590.586,270.977,576.405,283.321,574.14,298.545z"/>
		<path style="fill:#FFFFFF;" d="M622.983,302.244c1.872-12.566-6.381-22.754-18.438-22.754c-12.057,0-23.35,10.188-25.223,22.754
			c-0.184,1.24-0.242,2.446-0.236,3.63c-0.439-2.301-0.518-4.762-0.136-7.329c1.872-12.57,13.577-22.756,26.143-22.756
			c12.571,0,21.24,10.186,19.368,22.756c-0.383,2.566-1.193,5.027-2.32,7.329C622.498,304.69,622.798,303.483,622.983,302.244z"/>
		<path style="fill:#FFFFFF;" d="M614.58,301.736c1.173-7.865-3.857-14.244-11.229-14.244c-7.372,0-14.301,6.379-15.472,14.244
			c-0.113,0.757-0.151,1.494-0.154,2.216c-0.435-1.668-0.547-3.493-0.262-5.408c1.171-7.866,8.498-14.244,16.364-14.244
			c7.866,0,13.294,6.377,12.121,14.244c-0.286,1.915-0.939,3.739-1.875,5.408C614.289,303.23,614.469,302.493,614.58,301.736z"/>
		<path style="fill:#FFFFFF;" d="M576.664,184.586c-9.77,15.421,6.149,82.071,29.525,82.071c23.375,0,61.046-67.062,53.979-82.071
			C653.101,169.58,586.433,169.168,576.664,184.586z"/>
		<path style="fill:#FFFFFF;" d="M479.923,305.111c9.792,11.903,79.305,6.978,90.234-15.686
			c10.931-22.665-35.251-68.424-52.533-63.939C500.344,229.97,470.132,293.205,479.923,305.111z"/>
		<path style="fill:#FFFFFF;" d="M549.48,417.48c16.354-7.697,45.297-76.212,28.517-90.381c-16.785-14.167-84.453,22.23-88.47,39.77
			C485.508,384.409,533.126,425.178,549.48,417.48z"/>
		<path style="fill:#FFFFFF;" d="M693.643,368.056c0.29-16.992-57.736-51.75-75.935-41.786
			c-22.909,12.546-18.903,84.96-3.434,91.608C629.748,424.526,693.355,385.042,693.643,368.056z"/>
		<path style="fill:#FFFFFF;" d="M708.777,228.399c-16.056-3.111-76.009,39.261-72.74,62.131
			c3.267,22.874,72.41,31.702,85.719,18.512C735.062,295.854,724.831,231.514,708.777,228.399z"/>
		<path style="fill:#1F3044;" d="M607.116,260.549c21.879,0,57.153-62.879,50.544-76.951c-6.611-14.072-69.009-14.459-78.157,0
			C570.355,198.056,585.238,260.549,607.116,260.549z M482.214,298.119c9.838,11.206,77.25,8.012,87.26-12.742
			c10.009-20.755-34.828-65.217-51.499-61.406C501.302,227.783,472.379,286.913,482.214,298.119z M493.216,363.55
			c-3.931,16.481,40.178,54.261,55.544,46.888c15.367-7.371,43.114-71.885,27.566-85.009
			C560.779,312.303,497.149,347.068,493.216,363.55z M617.245,411.44c14.187,6.612,71.003-28.628,70.884-44.496
			c-0.118-15.869-49.984-53.469-69.823-41.014C598.461,338.384,603.061,404.826,617.245,411.44z M720.436,302.146
			c12.9-12.3,4.724-72.365-10.721-75.026c-15.441-2.662-74.723,38.072-71.719,59.071
			C640.995,307.195,707.532,314.448,720.436,302.146z"/>
		<path style="fill:#2B3C4F;" d="M486.997,296.508c-0.218,1.472-0.399,2.935-0.562,4.392c17.813,7.667,73.972,3.275,83.038-15.523
			c9.06-18.785-26.807-56.984-46.057-61.244C504.444,243.9,491.086,269.079,486.997,296.508z M613.494,408.055
			c28.399-6.877,54.361-23.564,73.346-46.109c-7.95-17.505-50.562-47.299-68.534-36.017
			C600.338,337.207,602.411,392.742,613.494,408.055z M495.85,358.432c11.375,23.165,31.678,40.655,57.515,48.514
			c15.587-15.529,37.052-69.623,22.962-81.517C562.25,313.545,508.769,340.914,495.85,358.432z M607.116,260.549
			c19.81,0,50.604-51.553,51.34-71.746c-11.865-4.719-25.094-7.305-39.313-7.305c-14.255,0-28.289,2.6-41.594,7.342
			C573.208,209.226,587.29,260.549,607.116,260.549z M715.417,305.122c0.631-2.843,1.17-5.716,1.602-8.614
			c3.859-25.906-1.149-49.812-12.738-69.04c-20.611,4.479-69.003,39.701-66.283,58.723
			C640.711,305.204,695.481,312.948,715.417,305.122z"/>
		<path style="fill:#475666;" d="M499.211,296.508c-0.361,2.436-0.631,4.847-0.82,7.24c23.553,2.913,63.554-2.761,71.082-18.372
			c7.504-15.558-15.816-44.44-34.985-56.32C516.089,247.11,503.059,270.698,499.211,296.508z M608.631,397.023
			c27.955-5.791,53.543-22.257,71.461-44.784c-14.95-16.722-46.862-35.68-61.787-26.31
			C603.425,335.266,602.29,374.958,608.631,397.023z M505.693,348.779c10.257,23.159,30.203,40.479,55.912,47.32
			c13.608-21.83,26.42-60.795,14.722-70.67C564.67,315.587,525.984,332.666,505.693,348.779z M576.871,201.498
			c1.287,23.677,13.784,59.051,30.245,59.051c16.405,0,40.345-35.359,48.508-58.98c-11.401-5.059-24.314-7.855-38.3-7.855
			C603.406,193.714,589.724,196.485,576.871,201.498z M702.503,307.799c0.956-3.708,1.732-7.474,2.3-11.291
			c3.63-24.349-1.511-46.716-13.035-64.328c-23.057,11.261-56.029,38.218-53.771,54.011
			C640.244,301.938,678.204,309.956,702.503,307.799z"/>
		<path style="fill:#17293E;" d="M698.335,308.062c1.007-3.792,1.816-7.645,2.399-11.554c3.518-23.633-1.557-45.324-12.875-62.317
			c-22.69,12.199-51.997,37.08-49.862,52C640.119,301.064,674.096,309.038,698.335,308.062z M607.648,393.195
			c27.369-5.478,52.43-21.618,69.813-43.745c-15.798-15.944-45.056-32.373-59.155-23.521
			C604.251,334.75,602.461,370.647,607.648,393.195z M509.236,346.093c9.851,22.747,29.388,39.717,54.617,46.228
			c12.703-22.283,23.523-57.564,12.474-66.892C565.316,316.135,530.197,330.856,509.236,346.093z M503.283,296.508
			c-0.384,2.571-0.663,5.12-0.845,7.642c23.827,1.853,59.922-4.024,67.035-18.773c7.089-14.696-13.317-41.268-31.757-54.184
			C519.753,248.599,507.014,271.462,503.283,296.508z M577.187,205.521c2.364,23.456,14.376,55.028,29.929,55.028
			c15.496,0,37.708-31.542,47.002-54.948c-11.097-5.032-23.716-7.816-37.4-7.816C603.106,197.785,589.728,200.538,577.187,205.521z"
			/>
		<path style="fill:#38485A;" d="M605.731,381.633c24.938-4.646,47.79-19.381,63.335-39.681
			c-16.277-13.009-38.893-23.475-50.761-16.022C606.476,333.352,603.336,359.952,605.731,381.633z M515.313,296.508
			c-0.399,2.677-0.654,5.321-0.804,7.934c22.454-0.523,48.977-6.651,54.964-19.065c5.968-12.373-7.555-33.16-22.98-47.133
			C530.22,253.636,518.654,274.077,515.313,296.508z M579.014,217.114c4.431,21.068,15.014,43.435,28.102,43.435
			c13.04,0,30.837-22.338,41.688-43.365c-9.996-4.727-21.428-7.369-33.88-7.369C602.535,209.815,590.37,212.432,579.014,217.114z
			 M686.249,307.859c1.039-3.717,1.88-7.501,2.454-11.351c3.157-21.196-1.564-40.606-11.955-55.667
			c-20.061,13.172-40.549,32.789-38.751,45.349C639.783,298.709,664.13,306.337,686.249,307.859z M520.112,338.987
			c8.64,20.853,26.448,36.341,49.554,41.926c9.768-21.397,15.964-47.633,6.661-55.484
			C567.058,317.607,540.718,326.794,520.112,338.987z"/>
		<path style="fill:#1A2B40;" d="M667.16,305.051c0.774-2.799,1.401-5.647,1.832-8.543c2.438-16.351-1.195-31.328-9.195-42.958
			c-13.088,11.214-23.077,23.713-21.8,32.641C639.266,295.101,651.969,301.534,667.16,305.051z M605.115,362.241
			c19.156-3.632,36.697-14.969,48.661-30.56c-13.164-7.288-27.033-11.049-35.471-5.751
			C609.887,331.212,605.87,346.215,605.115,362.241z M538.812,329.528c6.7,15.991,20.394,27.87,38.141,32.181
			c4.766-15.823,5.986-30.698-0.626-36.28C569.732,319.86,554.486,322.912,538.812,329.528z M535.022,296.508
			c-0.305,2.045-0.499,4.063-0.616,6.06c16.174-2.717,30.81-8.365,35.067-17.191c4.246-8.803-1.38-21.874-10.535-33.714
			C546.46,263.536,537.591,279.259,535.022,296.508z M607.116,260.549c9.281,0,20.974-11.317,30.857-25.426
			c-7.679-3.594-16.444-5.601-25.984-5.601c-9.549,0-18.922,2.011-27.68,5.612C589.772,249.243,597.809,260.549,607.116,260.549z"/>
		<path style="fill:#00142B;" d="M488.185,262.501c7.917-15.289,18.299-28.988,26.04-30.757
			c15.64-3.574,56.065,35.331,52.745,57.297c1.036-1.154,1.882-2.377,2.503-3.665c10.009-20.755-34.828-65.217-51.499-61.406
			C508.935,226.038,496.297,244.366,488.185,262.501z M721.147,301.386c11.872-13.816,3.717-71.653-11.432-74.267
			c-14.09-2.43-64.656,31.263-71.138,53.137c13.66-21.235,54.887-47.519,67.389-45.364
			C719.067,237.15,726.937,280.711,721.147,301.386z M577.446,189.376c13.365-12.394,70.173-11.397,76.464,1.994
			c2.203,4.693-0.255,14.818-5.317,26.229c7.488-14.402,11.764-28.263,9.067-34.001c-6.611-14.072-69.009-14.459-78.157,0
			C578.575,185.064,577.896,187.034,577.446,189.376z M493.216,363.55c-0.115,0.484-0.185,0.989-0.221,1.51
			c14.315-17.537,65.809-43.487,79.582-31.858c9.159,7.731,3.29,33.299-6.22,54.511c11.54-22.253,20.284-53.575,9.969-62.284
			C560.779,312.303,497.149,347.068,493.216,363.55z M609.103,339.28c1.561-2.362,3.369-4.272,5.454-5.579
			c19.839-12.455,69.704,25.145,69.821,41.014c0.005,0.311-0.023,0.63-0.063,0.954c2.427-3.231,3.833-6.221,3.813-8.726
			c-0.118-15.869-49.984-53.469-69.823-41.014C614.268,328.463,611.24,333.233,609.103,339.28z"/>
	</g>
</g>
</svg>
